<?xml version="1.0" encoding="UTF-8"?>
<!-- Generator: visioncortex VTracer 0.6.12 -->
<svg version="1.1" xmlns="http://www.w3.org/2000/svg" width="1320" height="1000">
<path d="M0 0 C435.6 0 871.2 0 1320 0 C1320 330 1320 660 1320 1000 C884.4 1000 448.8 1000 0 1000 C0 670 0 340 0 0 Z " fill="#111111" transform="translate(0,0)"/>
<path d="M0 0 C0.99 0.33 1.98 0.66 3 1 C3 6.28 3 11.56 3 17 C4.32 17.66 5.64 18.32 7 19 C8.708 20.572 8.708 20.572 10.383 22.406 C10.993 23.068 11.602 23.729 12.23 24.41 C12.543 24.755 12.543 24.755 14.125 26.5 C15.377 27.865 16.63 29.229 17.883 30.594 C18.433 31.199 18.984 31.804 19.551 32.428 C20.673 33.645 21.83 34.83 23 36 C23.246 38.589 23.246 38.589 23.241 41.935 C23.243 43.2 23.246 44.465 23.249 45.768 C23.242 47.178 23.234 48.587 23.227 49.997 C23.226 51.475 23.227 52.953 23.228 54.431 C23.229 58.451 23.217 62.472 23.203 66.492 C23.19 70.691 23.189 74.89 23.187 79.088 C23.181 87.043 23.164 94.997 23.144 102.951 C23.122 112.006 23.111 121.06 23.101 130.114 C23.08 148.743 23.045 167.371 23 186 C24.98 186 26.96 186 29 186 C28.998 185.38 28.996 184.76 28.994 184.121 C28.95 169.04 28.917 153.959 28.896 138.878 C28.886 131.585 28.872 124.292 28.849 116.999 C28.829 110.642 28.816 104.286 28.812 97.929 C28.809 94.563 28.803 91.198 28.789 87.832 C28.774 84.075 28.772 80.318 28.773 76.562 C28.766 75.444 28.759 74.327 28.751 73.176 C28.754 72.153 28.757 71.129 28.759 70.075 C28.758 69.186 28.756 68.297 28.754 67.382 C29.027 64.736 29.5 63.196 31 61 C35 59 35 59 44 59 C44 50.42 44 41.84 44 33 C44.99 33 45.98 33 47 33 C47 41.58 47 50.16 47 59 C50.3 59 53.6 59 57 59 C60.588 60.841 60.588 60.841 63 64 C63.788 67.538 63.7 70.942 63.586 74.551 C63.577 75.565 63.569 76.579 63.56 77.623 C63.527 80.854 63.451 84.082 63.375 87.312 C63.345 89.506 63.318 91.699 63.293 93.893 C63.227 99.263 63.127 104.631 63 110 C64.65 110 66.3 110 68 110 C68 103.07 68 96.14 68 89 C72 90 72 90 75 92 C75 92.66 75 93.32 75 94 C75.619 94.309 76.238 94.619 76.875 94.938 C78.25 95.625 79.625 96.312 81 97 C81 97.66 81 98.32 81 99 C81.287 99.124 81.287 99.124 82.738 99.75 C85.345 101.191 87.105 102.875 89.188 105 C89.882 105.701 90.577 106.403 91.293 107.125 C94.454 110.597 94.137 113.639 94.114 118.112 C94.114 118.844 94.114 119.575 94.114 120.329 C94.113 122.753 94.105 125.177 94.098 127.602 C94.096 129.28 94.094 130.959 94.093 132.638 C94.09 137.06 94.08 141.482 94.069 145.904 C94.058 150.415 94.054 154.926 94.049 159.438 C94.038 168.292 94.021 177.146 94 186 C97.63 186 101.26 186 105 186 C105.33 186.99 105.66 187.98 106 189 C37.69 189 -30.62 189 -101 189 C-101 188.01 -101 187.02 -101 186 C-97.37 186 -93.74 186 -90 186 C-90.011 185.091 -90.022 184.181 -90.034 183.245 C-90.134 174.653 -90.21 166.061 -90.259 157.469 C-90.285 153.053 -90.32 148.636 -90.377 144.22 C-90.432 139.953 -90.461 135.687 -90.474 131.42 C-90.484 129.797 -90.502 128.174 -90.529 126.55 C-90.789 110.303 -90.789 110.303 -85 104 C-84.683 103.623 -84.683 103.623 -83.078 101.715 C-70 89 -70 89 -65 89 C-65 95.93 -65 102.86 -65 110 C-63.35 110 -61.7 110 -60 110 C-60.022 109.408 -60.044 108.817 -60.067 108.207 C-60.29 102.01 -60.44 95.814 -60.549 89.614 C-60.599 87.306 -60.667 84.997 -60.754 82.689 C-61.498 62.433 -61.498 62.433 -57.846 57.31 C-55.356 54.817 -52.947 52.913 -50 51 C-48.885 49.949 -47.779 48.888 -46.688 47.812 C-44 46 -44 46 -41.784 46.057 C-34.512 48.52 -28.566 54.275 -25 61 C-22.684 69.63 -23.316 78.809 -23.58 87.661 C-23.669 91.126 -23.676 94.592 -23.693 98.059 C-23.736 104.601 -23.851 111.14 -23.992 117.681 C-24.149 125.137 -24.225 132.592 -24.295 140.049 C-24.441 155.368 -24.687 170.684 -25 186 C-23.02 186 -21.04 186 -19 186 C-19.007 185.621 -19.007 185.621 -19.042 183.702 C-19.374 165.187 -19.622 146.673 -19.777 128.156 C-19.854 119.201 -19.959 110.248 -20.132 101.294 C-20.282 93.483 -20.378 85.673 -20.411 77.86 C-20.431 73.729 -20.476 69.601 -20.586 65.471 C-21.316 37.021 -21.316 37.021 -13.629 28.098 C-11.088 25.601 -8.477 23.338 -5.581 21.264 C-4 20 -4 20 -2 17 C-1.34 17 -0.68 17 0 17 C0 11.39 0 5.78 0 0 Z " fill="#BBA565" transform="translate(300,406)"/>
<path d="M0 0 C0.735 0.001 1.47 0.001 2.227 0.002 C21.261 0.044 41.472 0.514 59.25 8.188 C58.6 21.888 57.505 35.529 56.25 49.188 C52.154 47.863 48.176 46.368 44.188 44.75 C18.954 34.996 -9.075 35.82 -33.859 46.531 C-47.23 53.33 -55.193 63.354 -60.91 76.945 C-65.838 92.67 -64.209 112.371 -56.762 126.934 C-49.735 140.072 -38.486 148.752 -24.375 153.125 C-17.431 155.206 -10.884 156.336 -3.625 156.375 C-2.426 156.389 -1.227 156.403 0.008 156.418 C5.465 156.122 10.859 155.086 16.25 154.188 C16.25 141.977 16.25 129.767 16.25 117.188 C6.68 117.188 -2.89 117.188 -12.75 117.188 C-12.75 105.308 -12.75 93.428 -12.75 81.188 C12.99 81.188 38.73 81.188 65.25 81.188 C65.25 115.837 65.25 150.487 65.25 186.188 C-5.237 199.404 -5.237 199.404 -37.75 191.188 C-39.021 190.897 -40.292 190.607 -41.602 190.309 C-54.143 187.256 -66.075 182.506 -76.75 175.188 C-77.281 174.826 -77.812 174.464 -78.359 174.092 C-87.73 167.589 -94.406 160.296 -100.681 150.795 C-101.542 149.501 -102.446 148.235 -103.363 146.98 C-107.719 140.791 -109.7 133.388 -111.75 126.188 C-112.074 125.069 -112.397 123.95 -112.73 122.797 C-118.323 99.796 -115.282 74.116 -106.75 52.188 C-105.172 49.906 -105.172 49.906 -103.75 48.188 C-103.337 47.301 -102.925 46.414 -102.5 45.5 C-91.565 24.802 -70.174 12.761 -48.607 5.995 C-40.477 3.697 -32.098 2.415 -23.75 1.188 C-22.543 0.993 -21.337 0.798 -20.094 0.598 C-13.44 -0.194 -6.692 -0.01 0 0 Z " fill="#B28F4F" transform="translate(653.75,367.8125)"/>
<path d="M0 0 C13.613 -0.262 26.39 0.868 39.69 3.921 C40.273 4.049 40.273 4.049 43.225 4.698 C49.347 6.078 55.134 7.658 60.94 10.046 C60.534 14.636 60.125 19.226 59.713 23.815 C59.574 25.375 59.435 26.934 59.297 28.494 C59.098 30.743 58.896 32.992 58.694 35.241 C58.633 35.932 58.573 36.623 58.511 37.335 C58.153 41.276 57.642 45.151 56.94 49.046 C52.652 48.127 48.891 47.151 45.002 45.108 C29.314 36.882 8.175 34.921 -8.892 39.482 C-24.634 44.457 -35.697 54.064 -43.365 68.511 C-50.767 83.946 -51.113 102.862 -46.06 119.046 C-40.626 132.77 -32.439 143.432 -19.06 150.046 C3.806 159.432 30.739 158.344 53.604 148.952 C55.94 148.046 55.94 148.046 58.94 148.046 C59.229 152.011 59.514 155.976 59.794 159.942 C59.937 161.943 60.083 163.945 60.229 165.946 C60.703 172.665 61.058 179.31 60.94 186.046 C56.942 187.032 52.941 188.009 48.94 188.983 C47.815 189.261 46.689 189.539 45.53 189.825 C44.979 189.959 44.979 189.959 42.19 190.636 C41.184 190.882 40.179 191.128 39.143 191.382 C32.425 192.775 25.92 193.204 19.084 193.214 C18.261 193.217 17.437 193.221 16.589 193.224 C14.855 193.229 13.122 193.231 11.388 193.231 C8.777 193.233 6.166 193.252 3.555 193.271 C-22.841 193.362 -49.364 187.261 -70.06 170.046 C-71.006 169.262 -71.952 168.478 -72.927 167.671 C-90.104 152.775 -99.735 130.983 -101.873 108.483 C-101.96 106.672 -102.025 104.859 -102.06 103.046 C-102.087 102.235 -102.114 101.424 -102.142 100.589 C-102.187 98.069 -102.134 95.565 -102.06 93.046 C-102.055 92.069 -102.05 91.092 -102.044 90.085 C-101.27 66.787 -91.961 43.356 -75.091 27.104 C-54.456 8.263 -27.416 0.611 0 0 Z " fill="#B28E4E" transform="translate(998.06005859375,367.9541015625)"/>
<path d="M0 0 C41.25 0 82.5 0 125 0 C125 11.88 125 23.76 125 36 C100.25 36 75.5 36 50 36 C50 49.53 50 63.06 50 77 C73.76 77 97.52 77 122 77 C122 88.55 122 100.1 122 112 C98.24 112 74.48 112 50 112 C50 136.75 50 161.5 50 187 C33.5 187 17 187 0 187 C0 125.29 0 63.58 0 0 Z " fill="#E8DB8D" transform="translate(753,371)"/>
<path d="M0 0 C5.61 0 11.22 0 17 0 C17 176.88 17 353.76 17 536 C11.39 536 5.78 536 0 536 C0 359.12 0 182.24 0 0 Z " fill="#9A6E34" transform="translate(476,232)"/>
<path d="M0 0 C2.31 0 4.62 0 7 0 C7 176.22 7 352.44 7 534 C4.69 534 2.38 534 0 534 C0 357.78 0 181.56 0 0 Z " fill="#E1CF83" transform="translate(481,233)"/>
<path d="M0 0 C1.32 0 2.64 0 4 0 C4 176.22 4 352.44 4 534 C2.68 534 1.36 534 0 534 C0 357.78 0 181.56 0 0 Z " fill="#B49150" transform="translate(477,233)"/>
<path d="M0 0 C9.24 0 18.48 0 28 0 C29.152 3.456 29.12 6.12 29.114 9.766 C29.114 10.45 29.114 11.133 29.114 11.837 C29.113 14.093 29.105 16.349 29.098 18.605 C29.096 20.171 29.094 21.736 29.093 23.301 C29.09 27.419 29.08 31.537 29.069 35.655 C29.058 39.858 29.054 44.061 29.049 48.264 C29.038 56.509 29.021 64.755 29 73 C26.03 73 23.06 73 20 73 C20 69.7 20 66.4 20 63 C20.784 62.794 21.567 62.587 22.375 62.375 C25 61 25 61 26.375 58.398 C27.23 53.747 25.793 51.308 23.625 47.25 C20 40.15 20 40.15 20 38 C18.68 38 17.36 38 16 38 C15.773 38.784 15.546 39.567 15.312 40.375 C14.184 43.493 12.888 46.102 11.312 49 C9.605 52.325 8.989 53.688 9.125 57.5 C10 60 10 60 11 62 C14.062 62.625 14.062 62.625 17 63 C17 66.3 17 69.6 17 73 C11.39 73 5.78 73 0 73 C0 48.91 0 24.82 0 0 Z " fill="#1E1B16" transform="translate(363,519)"/>
<path d="M0 0 C0.99 0 1.98 0 3 0 C3 176.22 3 352.44 3 534 C2.01 534 1.02 534 0 534 C0 357.78 0 181.56 0 0 Z " fill="#BB9B58" transform="translate(488,233)"/>
<path d="M0 0 C8.91 0 17.82 0 27 0 C27 24.09 27 48.18 27 73 C21.72 73 16.44 73 11 73 C11 69.7 11 66.4 11 63 C12.98 62.34 14.96 61.68 17 61 C18.373 55.156 17.456 51.76 14.562 46.688 C11 40.166 11 40.166 11 38 C8 39 8 39 6.925 40.582 C6.765 40.915 6.765 40.915 5.957 42.598 C5.606 43.316 5.254 44.035 4.893 44.775 C4.536 45.53 4.18 46.285 3.812 47.062 C3.444 47.821 3.076 48.58 2.697 49.361 C1.789 51.237 0.893 53.118 0 55 C-0.33 55 -0.66 55 -1 55 C-1.025 47.649 -1.043 40.299 -1.055 32.948 C-1.06 30.446 -1.067 27.945 -1.075 25.443 C-1.088 21.851 -1.093 18.26 -1.098 14.668 C-1.1 14.107 -1.1 14.107 -1.113 11.268 C-1.113 10.227 -1.113 9.186 -1.114 8.114 C-1.116 7.197 -1.118 6.28 -1.12 5.335 C-1 3 -1 3 0 0 Z " fill="#1D1A16" transform="translate(213,519)"/>
<path d="M0 0 C11.55 0 23.1 0 35 0 C35 1.65 35 3.3 35 5 C33.515 5.165 33.515 5.165 26 6 C25.67 6.99 25.34 7.98 25 9 C28.3 9 31.6 9 35 9 C35 10.98 35 12.96 35 15 C28.73 15 22.46 15 16 15 C16 15.99 16 16.98 16 18 C22.27 18 28.54 18 35 18 C35 19.98 35 21.96 35 24 C32.03 24 29.06 24 26 24 C26.33 24.99 26.66 25.98 27 27 C29.64 27.33 32.28 27.66 35 28 C35 29.98 35 31.96 35 34 C32.36 34 29.72 34 27 34 C27 34.99 27 35.98 27 37 C29.97 37 32.94 37 36 37 C36 38.98 36 40.96 36 43 C27.09 43 18.18 43 9 43 C9 43.99 9 44.98 9 46 C13.29 46.165 13.29 46.165 35 47 C35 48.65 35 50.3 35 52 C28.73 52 22.46 52 16 52 C16.33 52.99 16.66 53.98 17 55 C22.94 55.33 28.88 55.66 35 56 C35 57.98 35 59.96 35 62 C23.45 62 11.9 62 0 62 C0 60.02 0 58.04 0 56 C1.485 55.835 1.485 55.835 9 55 C9 54.34 9 53.68 9 53 C6.03 52.67 3.06 52.34 0 52 C0 50.35 0 48.7 0 47 C0.99 47 1.98 47 3 47 C3 45.68 3 44.36 3 43 C2.01 43 1.02 43 0 43 C0 41.02 0 39.04 0 37 C6.93 37 13.86 37 21 37 C21 36.01 21 35.02 21 34 C14.07 34 7.14 34 0 34 C0 32.02 0 30.04 0 28 C6.6 28 13.2 28 20 28 C20 26.68 20 25.36 20 24 C13.4 24 6.8 24 0 24 C0 22.02 0 20.04 0 18 C3.3 18 6.6 18 10 18 C10 17.01 10 16.02 10 15 C6.7 15 3.4 15 0 15 C0 13.02 0 11.04 0 9 C6.27 8.67 12.54 8.34 19 8 C19 7.34 19 6.68 19 6 C12.73 5.67 6.46 5.34 0 5 C0 3.35 0 1.7 0 0 Z " fill="#151513" transform="translate(284,501)"/>
<path d="M0 0 C3.63 0 7.26 0 11 0 C12.173 3.102 13.338 6.206 14.5 9.312 C14.834 10.194 15.168 11.075 15.512 11.982 C15.828 12.83 16.143 13.678 16.469 14.551 C16.615 14.941 16.615 14.941 17.357 16.915 C18 19 18 19 18 22 C18.66 22 19.32 22 20 22 C20.227 20.783 20.454 19.566 20.688 18.312 C22.079 11.956 24.564 6.016 27 0 C28.812 -0.027 30.625 -0.046 32.438 -0.062 C33.447 -0.074 34.456 -0.086 35.496 -0.098 C38 0 38 0 39 1 C39.229 2.879 39.396 4.765 39.535 6.652 C39.579 7.237 39.579 7.237 39.799 10.197 C39.842 10.814 39.842 10.814 40.062 13.938 C40.153 15.137 40.244 16.336 40.338 17.572 C40.833 24.395 41.133 31.159 41 38 C38.36 38 35.72 38 33 38 C32.34 30.08 31.68 22.16 31 14 C29.171 16.743 28.285 18.796 27.273 21.887 C26.964 22.825 26.655 23.762 26.336 24.729 C26.019 25.705 25.702 26.681 25.375 27.688 C25.05 28.676 24.725 29.664 24.391 30.682 C23.59 33.12 22.793 35.559 22 38 C20.02 38 18.04 38 16 38 C13.36 30.08 10.72 22.16 8 14 C7.075 16.776 6.728 18.993 6.465 21.887 C6.421 22.356 6.421 22.356 6.201 24.729 C6.114 25.705 6.027 26.681 5.938 27.688 C5.847 28.676 5.756 29.664 5.662 30.682 C5.438 33.121 5.218 35.56 5 38 C2.36 38 -0.28 38 -3 38 C-1.694 3.389 -1.694 3.389 0 0 Z " fill="#9C9D9D" transform="translate(643,597)"/>
<path d="M0 0 C8.91 0 17.82 0 27 0 C27 12.54 27 25.08 27 38 C18.09 38 9.18 38 0 38 C0 25.46 0 12.92 0 0 Z " fill="#141312" transform="translate(244,468)"/>
<path d="M0 0 C19.654 0 19.654 0 24.812 4.625 C26.667 8.334 26.694 11.941 26 16 C24.124 18.502 22.761 19.619 20 21 C21.378 24.876 23.192 27.879 25.625 31.188 C29 35.782 29 35.782 29 38 C25.719 38.889 23.25 39.088 20 38 C15.917 33.202 12.12 27.286 11 21 C10.01 21 9.02 21 8 21 C8 26.61 8 32.22 8 38 C5.36 38 2.72 38 0 38 C0 25.46 0 12.92 0 0 Z " fill="#727272" transform="translate(567,597)"/>
<path d="M0 0 C17 0 17 0 23 4 C25.461 6.461 25.377 7.407 25.5 10.812 C25.447 15.412 25.447 15.412 23.656 17.77 C22 19.125 22 19.125 19 21 C22.15 26.791 25.445 32.448 29 38 C25.811 38.651 23.168 38.826 20 38 C15.444 33.522 12.769 27.684 10 22 C9.34 21.67 8.68 21.34 8 21 C8 26.61 8 32.22 8 38 C5.36 38 2.72 38 0 38 C0 25.46 0 12.92 0 0 Z " fill="#757676" transform="translate(982,597)"/>
<path d="M0 0 C0.458 0.006 0.458 0.006 2.777 0.035 C3.696 0.044 4.616 0.053 5.562 0.062 C6.273 0.074 6.983 0.086 7.715 0.098 C9.573 5.025 11.424 9.955 13.269 14.886 C13.898 16.564 14.528 18.241 15.161 19.918 C16.069 22.326 16.971 24.737 17.871 27.148 C18.155 27.899 18.44 28.649 18.733 29.421 C19.857 32.447 20.715 34.842 20.715 38.098 C18.075 38.098 15.435 38.098 12.715 38.098 C12.055 35.458 11.395 32.818 10.715 30.098 C5.105 30.098 -0.505 30.098 -6.285 30.098 C-6.285 31.748 -6.285 33.398 -6.285 35.098 C-6.945 36.088 -7.605 37.078 -8.285 38.098 C-11.91 38.285 -11.91 38.285 -15.285 38.098 C-14.896 32.393 -13.033 27.929 -10.758 22.715 C-8.657 17.555 -6.957 12.279 -5.253 6.977 C-3.037 0.13 -3.037 0.13 0 0 Z " fill="#888888" transform="translate(614.28515625,596.90234375)"/>
<path d="M0 0 C2.64 0 5.28 0 8 0 C8 5.28 8 10.56 8 16 C13.28 16 18.56 16 24 16 C24 10.72 24 5.44 24 0 C26.64 0 29.28 0 32 0 C32 12.54 32 25.08 32 38 C29.36 38 26.72 38 24 38 C24 33.05 24 28.1 24 23 C18.72 23 13.44 23 8 23 C8 27.95 8 32.9 8 38 C5.36 38 2.72 38 0 38 C0 25.46 0 12.92 0 0 Z " fill="#D9DADB" transform="translate(764,597)"/>
<path d="M0 0 C2.64 0 5.28 0 8 0 C8.025 0.772 8.05 1.544 8.076 2.339 C8.192 5.83 8.315 9.321 8.438 12.812 C8.477 14.027 8.516 15.242 8.557 16.494 C8.578 17.076 8.578 17.076 8.684 20.02 C8.72 21.093 8.757 22.167 8.795 23.273 C9 26 9 26 10 29 C13.013 30.507 15.683 30.178 19 30 C21.754 27.246 21.31 25.534 21.414 21.68 C21.453 20.423 21.491 19.166 21.531 17.871 C21.562 16.552 21.593 15.234 21.625 13.875 C21.663 12.535 21.702 11.195 21.742 9.855 C21.837 6.57 21.922 3.285 22 0 C24.64 0 27.28 0 30 0 C30.025 4.075 30.043 8.15 30.055 12.225 C30.06 13.611 30.067 14.997 30.075 16.384 C30.088 18.377 30.093 20.37 30.098 22.363 C30.1 22.963 30.1 22.963 30.114 25.997 C30 29 30 29 29 32 C28.34 32 27.68 32 27 32 C26.835 32.598 26.67 33.196 26.5 33.812 C24.154 37.233 20.903 38.179 17 39 C12.247 39.281 8.389 38.692 4.562 35.75 C0.329 31.206 -0.251 27.5 -0.195 21.387 C-0.189 20.14 -0.182 18.892 -0.176 17.607 C-0.159 16.314 -0.142 15.02 -0.125 13.688 C-0.116 12.375 -0.107 11.062 -0.098 9.709 C-0.074 6.472 -0.041 3.236 0 0 Z " fill="#868687" transform="translate(943,597)"/>
<path d="M0 0 C2.64 0 5.28 0 8 0 C8.02 0.838 8.04 1.675 8.06 2.539 C8.138 5.644 8.225 8.748 8.317 11.853 C8.375 13.859 8.422 15.865 8.469 17.871 C8.507 19.128 8.546 20.385 8.586 21.68 C8.617 22.842 8.649 24.005 8.681 25.203 C9 28 9 28 11 30 C13.97 30 16.94 30 20 30 C20.33 20.1 20.66 10.2 21 0 C23.64 0 26.28 0 29 0 C29.149 4.144 29.258 8.287 29.33 12.433 C29.36 13.84 29.4 15.248 29.453 16.655 C29.93 29.846 29.93 29.846 26.191 34.371 C23.139 37.301 20.216 38.408 16 39 C11.707 38.704 7.764 38.137 4 36 C0.393 31.517 -0.488 28.566 -0.391 22.852 C-0.385 22.194 -0.379 21.537 -0.373 20.859 C-0.351 18.781 -0.301 16.703 -0.25 14.625 C-0.23 13.207 -0.212 11.789 -0.195 10.371 C-0.151 6.913 -0.083 3.457 0 0 Z " fill="#A5A5A6" transform="translate(878,597)"/>
<path d="M0 0 C11.55 0 23.1 0 35 0 C35 1.98 35 3.96 35 6 C29.39 6 23.78 6 18 6 C18 6.99 18 7.98 18 9 C23.94 9 29.88 9 36 9 C36 10.98 36 12.96 36 15 C32.04 15 28.08 15 24 15 C24 16.32 24 17.64 24 19 C27.63 19 31.26 19 35 19 C35 20.65 35 22.3 35 24 C23.45 24 11.9 24 0 24 C0 22.35 0 20.7 0 19 C5.94 19 11.88 19 18 19 C17.67 18.01 17.34 17.02 17 16 C11.39 15.67 5.78 15.34 0 15 C0 13.02 0 11.04 0 9 C4.29 9 8.58 9 13 9 C13 8.01 13 7.02 13 6 C8.71 6 4.42 6 0 6 C0 4.02 0 2.04 0 0 Z " fill="#141412" transform="translate(284,473)"/>
<path d="M0 0 C6.93 0 13.86 0 21 0 C21 2.31 21 4.62 21 7 C16.38 7 11.76 7 7 7 C7 9.97 7 12.94 7 16 C11.29 16 15.58 16 20 16 C20 18.31 20 20.62 20 23 C16.04 23 12.08 23 8 23 C8 25.64 8 28.28 8 31 C12.62 31 17.24 31 22 31 C22 33.31 22 35.62 22 38 C14.74 38 7.48 38 0 38 C0 25.46 0 12.92 0 0 Z " fill="#B2B2B3" transform="translate(693,597)"/>
<path d="M0 0 C6.93 0 13.86 0 21 0 C21 2.31 21 4.62 21 7 C16.38 7 11.76 7 7 7 C7.33 9.64 7.66 12.28 8 15 C11.96 15.33 15.92 15.66 20 16 C20 17.98 20 19.96 20 22 C16.04 22 12.08 22 8 22 C8 24.97 8 27.94 8 31 C12.29 31 16.58 31 21 31 C21 33.31 21 35.62 21 38 C14.07 38 7.14 38 0 38 C0 25.46 0 12.92 0 0 Z " fill="#666666" transform="translate(1017,597)"/>
<path d="M0 0 C6.93 0 13.86 0 21 0 C21 2.31 21 4.62 21 7 C16.38 7 11.76 7 7 7 C7.33 9.64 7.66 12.28 8 15 C11.96 15.33 15.92 15.66 20 16 C20 17.98 20 19.96 20 22 C16.04 22 12.08 22 8 22 C8 24.97 8 27.94 8 31 C12.29 31 16.58 31 21 31 C21 33.31 21 35.62 21 38 C14.07 38 7.14 38 0 38 C0 25.46 0 12.92 0 0 Z " fill="#D4D5D6" transform="translate(806,597)"/>
<path d="M0 0 C7.59 0 15.18 0 23 0 C23 2.64 23 5.28 23 8 C18.38 8 13.76 8 9 8 C9 10.31 9 12.62 9 15 C12.96 15 16.92 15 21 15 C21 17.31 21 19.62 21 22 C17.04 22 13.08 22 9 22 C9 27.28 9 32.56 9 38 C6.03 38 3.06 38 0 38 C0 25.46 0 12.92 0 0 Z " fill="#ADAEAF" transform="translate(849,597)"/>
<path d="M0 0 C11.55 0 23.1 0 35 0 C35 8.58 35 17.16 35 26 C33.35 26 31.7 26 30 26 C30 20.72 30 15.44 30 10 C26.187 9.973 22.375 9.953 18.562 9.938 C17.474 9.929 16.385 9.921 15.264 9.912 C14.746 9.91 14.746 9.91 12.129 9.902 C11.171 9.897 10.212 9.892 9.225 9.886 C7 10 7 10 6 11 C5.763 13.526 5.578 16.031 5.438 18.562 C5.394 19.273 5.351 19.984 5.307 20.717 C5.2 22.478 5.1 24.239 5 26 C3.35 26 1.7 26 0 26 C0 17.42 0 8.84 0 0 Z " fill="#111111" transform="translate(284,566)"/>
<path d="M0 0 C7.26 0 14.52 0 22 0 C22 2.31 22 4.62 22 7 C17.05 7 12.1 7 7 7 C7 9.97 7 12.94 7 16 C11.29 16 15.58 16 20 16 C20 17.98 20 19.96 20 22 C15.71 22 11.42 22 7 22 C7 27.28 7 32.56 7 38 C4.69 38 2.38 38 0 38 C0 25.46 0 12.92 0 0 Z " fill="#636363" transform="translate(539,597)"/>
<path d="M0 0 C8.91 0 17.82 0 27 0 C27 5.28 27 10.56 27 16 C18.09 16 9.18 16 0 16 C0 10.72 0 5.44 0 0 Z " fill="#111111" transform="translate(244,576)"/>
<path d="M0 0 C8.58 0 17.16 0 26 0 C26 2.31 26 4.62 26 7 C23.03 7 20.06 7 17 7 C17 17.23 17 27.46 17 38 C14.36 38 11.72 38 9 38 C9 27.77 9 17.54 9 7 C6.03 7 3.06 7 0 7 C0 4.69 0 2.38 0 0 Z " fill="#959696" transform="translate(912,597)"/>
<path d="M0 0 C8.25 0 16.5 0 25 0 C25 2.31 25 4.62 25 7 C22.36 7 19.72 7 17 7 C17 17.23 17 27.46 17 38 C14.36 38 11.72 38 9 38 C9 27.77 9 17.54 9 7 C6.03 7 3.06 7 0 7 C0 4.69 0 2.38 0 0 Z " fill="#C5C6C7" transform="translate(733,597)"/>
<path d="M0 0 C8.58 0 17.16 0 26 0 C26 5.28 26 10.56 26 16 C17.42 16 8.84 16 0 16 C0 10.72 0 5.44 0 0 Z " fill="#111111" transform="translate(333,576)"/>
<path d="M0 0 C11.88 0 23.76 0 36 0 C36 1.98 36 3.96 36 6 C33.36 6 30.72 6 28 6 C28 7.32 28 8.64 28 10 C30.31 10 32.62 10 35 10 C35 11.65 35 13.3 35 15 C23.45 15 11.9 15 0 15 C0 13.35 0 11.7 0 10 C7.26 10 14.52 10 22 10 C21.67 9.01 21.34 8.02 21 7 C14.07 6.67 7.14 6.34 0 6 C0 4.02 0 2.04 0 0 Z " fill="#171714" transform="translate(284,454)"/>
<path d="M0 0 C1.516 1.539 1.516 1.539 3.25 3.625 C5.547 6.34 7.872 8.913 10.438 11.375 C13 14 13 14 13 16 C3.43 16 -6.14 16 -16 16 C-9.169 6.892 -9.169 6.892 -5.75 3.5 C-5.085 2.83 -4.42 2.159 -3.734 1.469 C-2 0 -2 0 0 0 Z " fill="#121211" transform="translate(303,426)"/>
<path d="M0 0 C5.94 0 11.88 0 18 0 C18 4.29 18 8.58 18 13 C12.06 13 6.12 13 0 13 C0 8.71 0 4.42 0 0 Z " fill="#141312" transform="translate(293,579)"/>
<path d="M0 0 C3.688 0.375 3.688 0.375 5.875 2.812 C6.174 3.235 6.174 3.235 7.688 5.375 C9.938 6.188 9.938 6.188 11.688 6.375 C11.358 7.695 11.028 9.015 10.688 10.375 C2.108 10.375 -6.472 10.375 -15.312 10.375 C-15.643 9.055 -15.972 7.735 -16.312 6.375 C-15.614 6.349 -14.915 6.323 -14.195 6.297 C-13.285 6.24 -12.375 6.183 -11.438 6.125 C-10.533 6.079 -9.628 6.032 -8.695 5.984 C-6.312 5.375 -6.312 5.375 -5.055 3.391 C-4.81 2.725 -4.565 2.06 -4.312 1.375 C-3.312 0.375 -3.312 0.375 0 0 Z " fill="#916B35" transform="translate(217.3125,472.625)"/>
<path d="M0 0 C11.55 0 23.1 0 35 0 C35 1.65 35 3.3 35 5 C23.45 5 11.9 5 0 5 C0 3.35 0 1.7 0 0 Z " fill="#111111" transform="translate(284,446)"/>
<path d="M0 0 C9.24 0 18.48 0 28 0 C28 1.98 28 3.96 28 6 C18.76 6 9.52 6 0 6 C0 4.02 0 2.04 0 0 Z " fill="#141312" transform="translate(243,566)"/>
<path d="M0 0 C9.24 0 18.48 0 28 0 C28 1.98 28 3.96 28 6 C18.76 6 9.52 6 0 6 C0 4.02 0 2.04 0 0 Z " fill="#1B1915" transform="translate(243,557)"/>
<path d="M0 0 C9.24 0 18.48 0 28 0 C28 1.98 28 3.96 28 6 C18.76 6 9.52 6 0 6 C0 4.02 0 2.04 0 0 Z " fill="#1B1A15" transform="translate(243,538)"/>
<path d="M0 0 C8.91 0 17.82 0 27 0 C27 1.98 27 3.96 27 6 C18.09 6 9.18 6 0 6 C0 4.02 0 2.04 0 0 Z " fill="#111111" transform="translate(244,529)"/>
<path d="M0 0 C8.91 0 17.82 0 27 0 C27 1.98 27 3.96 27 6 C18.09 6 9.18 6 0 6 C0 4.02 0 2.04 0 0 Z " fill="#111111" transform="translate(244,519)"/>
<path d="M0 0 C8.91 0 17.82 0 27 0 C27 1.98 27 3.96 27 6 C18.09 6 9.18 6 0 6 C0 4.02 0 2.04 0 0 Z " fill="#181714" transform="translate(244,510)"/>
<path d="M0 0 C0.66 0 1.32 0 2 0 C2 0.66 2 1.32 2 2 C2.531 2.227 3.062 2.454 3.609 2.688 C6.79 4.434 9.48 6.681 12.25 9 C12.804 9.451 13.359 9.902 13.93 10.367 C15.327 11.531 16.669 12.761 18 14 C18 14.66 18 15.32 18 16 C12.06 16 6.12 16 0 16 C0 10.72 0 5.44 0 0 Z " fill="#1F1B15" transform="translate(371,500)"/>
<path d="M0 0 C1.472 1.248 2.942 2.498 4.375 3.789 C7.043 5.777 9.777 6.291 13 7 C12.67 7.66 12.34 8.32 12 9 C3.09 9 -5.82 9 -15 9 C-15 8.01 -15 7.02 -15 6 C-14.381 5.918 -13.762 5.835 -13.125 5.75 C-10.325 4.762 -10.259 3.596 -9 1 C-5.801 -1.316 -3.676 -1.313 0 0 Z " fill="#DCCD83" transform="translate(390,474)"/>
<path d="M0 0 C8.58 0 17.16 0 26 0 C26 1.98 26 3.96 26 6 C17.42 6 8.84 6 0 6 C0 4.02 0 2.04 0 0 Z " fill="#111111" transform="translate(333,566)"/>
<path d="M0 0 C8.58 0 17.16 0 26 0 C26 1.98 26 3.96 26 6 C17.42 6 8.84 6 0 6 C0 4.02 0 2.04 0 0 Z " fill="#181714" transform="translate(333,557)"/>
<path d="M0 0 C8.58 0 17.16 0 26 0 C26 1.98 26 3.96 26 6 C17.42 6 8.84 6 0 6 C0 4.02 0 2.04 0 0 Z " fill="#181714" transform="translate(333,538)"/>
<path d="M0 0 C8.58 0 17.16 0 26 0 C26 1.98 26 3.96 26 6 C17.42 6 8.84 6 0 6 C0 4.02 0 2.04 0 0 Z " fill="#111111" transform="translate(333,529)"/>
<path d="M0 0 C8.58 0 17.16 0 26 0 C26 1.98 26 3.96 26 6 C17.42 6 8.84 6 0 6 C0 4.02 0 2.04 0 0 Z " fill="#111111" transform="translate(333,519)"/>
<path d="M0 0 C8.58 0 17.16 0 26 0 C26 1.98 26 3.96 26 6 C17.42 6 8.84 6 0 6 C0 4.02 0 2.04 0 0 Z " fill="#181714" transform="translate(333,510)"/>
<path d="M0 0 C3.588 4.305 6.779 9.352 7.25 15 C7.168 15.66 7.085 16.32 7 17 C5.35 17.66 3.7 18.32 2 19 C-0.047 16.953 0.3 12.696 0 10 C-0.33 12.97 -0.66 15.94 -1 19 C-2.65 18.67 -4.3 18.34 -6 18 C-6.921 14.426 -7.207 12.519 -5.82 9.043 C-5.261 8.101 -4.701 7.158 -4.125 6.188 C-3.571 5.232 -3.016 4.277 -2.445 3.293 C-1 1 -1 1 0 0 Z " fill="#32291B" transform="translate(381,561)"/>
<path d="M0 0 C0 5.28 0 10.56 0 16 C-5.61 16 -11.22 16 -17 16 C-13.179 11.451 -9.349 7.053 -5 3 C-4.34 3 -3.68 3 -3 3 C-3 2.34 -3 1.68 -3 1 C-1 0 -1 0 0 0 Z " fill="#1D1914" transform="translate(232,500)"/>
<path d="M0 0 C4.223 1.408 4.964 3.832 6.992 7.633 C8.231 10.542 8.401 12.874 8 16 C6.35 16.66 4.7 17.32 3 18 C3 14.7 3 11.4 3 8 C2.67 8.165 2.67 8.165 1 9 C0.586 11.066 0.586 11.066 0.375 13.562 C0.3 14.389 0.225 15.215 0.148 16.066 C0.099 16.704 0.05 17.343 0 18 C-1.875 17.812 -1.875 17.812 -4 17 C-5.43 14.832 -5.43 14.832 -6 12 C-4.883 8.887 -4.883 8.887 -3.125 5.688 C-2.55 4.619 -1.975 3.55 -1.383 2.449 C-0.926 1.641 -0.47 0.833 0 0 Z " fill="#292218" transform="translate(221,562)"/>
<path d="M0 0 C8.91 0 17.82 0 27 0 C27 1.65 27 3.3 27 5 C18.09 5 9.18 5 0 5 C0 3.35 0 1.7 0 0 Z " fill="#111111" transform="translate(244,548)"/>
<path d="M0 0 C8.58 0 17.16 0 26 0 C26 1.65 26 3.3 26 5 C17.42 5 8.84 5 0 5 C0 3.35 0 1.7 0 0 Z " fill="#111111" transform="translate(333,548)"/>
<path d="M0 0 C8.58 0 17.16 0 26 0 C26 1.65 26 3.3 26 5 C17.42 5 8.84 5 0 5 C0 3.35 0 1.7 0 0 Z " fill="#111111" transform="translate(333,501)"/>
<path d="M0 0 C8.58 0 17.16 0 26 0 C26 1.65 26 3.3 26 5 C17.42 5 8.84 5 0 5 C0 3.35 0 1.7 0 0 Z " fill="#111111" transform="translate(333,492)"/>
<path d="M0 0 C6.93 0 13.86 0 21 0 C21 1.32 21 2.64 21 4 C20 5 20 5 18.142 5.114 C17.352 5.108 16.561 5.103 15.746 5.098 C14.892 5.094 14.038 5.091 13.158 5.088 C12.26 5.08 11.363 5.071 10.438 5.062 C9.536 5.058 8.634 5.053 7.705 5.049 C5.47 5.037 3.235 5.021 1 5 C0.67 3.35 0.34 1.7 0 0 Z " fill="#6B5631" transform="translate(247,493)"/>
<path d="M0 0 C8.58 0 17.16 0 26 0 C26 1.32 26 2.64 26 4 C17.42 4 8.84 4 0 4 C0 2.68 0 1.36 0 0 Z " fill="#1C1A16" transform="translate(333,484)"/>
<path d="M0 0 C8.58 0 17.16 0 26 0 C26 1.32 26 2.64 26 4 C17.42 4 8.84 4 0 4 C0 2.68 0 1.36 0 0 Z " fill="#1C1A16" transform="translate(333,477)"/>
<path d="M0 0 C6.93 0 13.86 0 21 0 C20.67 1.65 20.34 3.3 20 5 C13.73 5 7.46 5 1 5 C0.67 3.35 0.34 1.7 0 0 Z " fill="#D0BA73" transform="translate(247,483)"/>
<path d="M0 0 C7.59 0 15.18 0 23 0 C23.33 1.32 23.66 2.64 24 4 C15.42 4 6.84 4 -2 4 C-1.34 2.68 -0.68 1.36 0 0 Z " fill="#121211" transform="translate(335,469)"/>
<path d="M0 0 C0.66 0 1.32 0 2 0 C3.333 1.333 4.667 2.667 6 4 C6.99 4.33 7.98 4.66 9 5 C9 7.97 9 10.94 9 14 C6.03 14 3.06 14 0 14 C0 9.38 0 4.76 0 0 Z " fill="#1E1A14" transform="translate(212,578)"/>
<path d="M0 0 C2 1 2 1 3.07 3.617 C3.244 4.155 3.244 4.155 4.125 6.875 C4.478 7.945 4.831 9.015 5.195 10.117 C6 13 6 13 6 16 C2.37 16 -1.26 16 -5 16 C-4.546 14.659 -4.092 13.319 -3.625 11.938 C-2.305 7.984 -1.111 4.017 0 0 Z " fill="#191919" transform="translate(616,605)"/>
<path d="M0 0 C1.458 -0.054 2.916 -0.093 4.375 -0.125 C5.187 -0.148 5.999 -0.171 6.836 -0.195 C9 0 9 0 11 2 C11.312 4.5 11.312 4.5 11 7 C7.343 9.438 5.31 9.239 1 9 C0 8 0 8 -0.098 6.152 C-0.065 4.102 -0.033 2.051 0 0 Z " fill="#191919" transform="translate(989,604)"/>
<path d="M0 0 C0.33 0 0.66 0 1 0 C1 4.62 1 9.24 1 14 C-1.64 14 -4.28 14 -7 14 C-7 10.7 -7 7.4 -7 4 C-6.608 3.856 -6.608 3.856 -4.625 3.125 C-2 2 -2 2 0 0 Z " fill="#171512" transform="translate(390,578)"/>
<path d="M0 0 C6.93 0 13.86 0 21 0 C21 1.32 21 2.64 21 4 C14.07 4 7.14 4 0 4 C0 2.68 0 1.36 0 0 Z " fill="#E5D588" transform="translate(247,473)"/>
<path d="M0 0 C7.75 -0.125 7.75 -0.125 10 1 C10 2.98 10 4.96 10 7 C6.598 9.094 3.947 9.179 0 9 C0 6.03 0 3.06 0 0 Z " fill="#151515" transform="translate(575,604)"/>
<path d="M0 0 C5.09 0.588 6.966 4.207 10 8 C4.39 8 -1.22 8 -7 8 C-1.125 1.125 -1.125 1.125 0 0 Z " fill="#191814" transform="translate(256,456)"/>
<path d="M0 0 C-0.99 0 -1.98 0 -3 0 C-3 0.66 -3 1.32 -3 2 C-1.68 2.66 -0.36 3.32 1 4 C1 4.66 1 5.32 1 6 C-0.65 6 -2.3 6 -4 6 C-4 6.99 -4 7.98 -4 9 C-7.3 9 -10.6 9 -14 9 C-14 8.01 -14 7.02 -14 6 C-13.381 5.918 -12.762 5.835 -12.125 5.75 C-9.325 4.762 -9.259 3.596 -8 1 C-5.044 -1.069 -3.374 -1.205 0 0 Z " fill="#BFAA68" transform="translate(389,474)"/>
<path d="M0 0 C4.29 0 8.58 0 13 0 C13 1.32 13 2.64 13 4 C8.71 4 4.42 4 0 4 C0 2.68 0 1.36 0 0 Z " fill="#D6C177" transform="translate(252,493)"/>
<path d="M0 0 C0.99 0.33 1.98 0.66 3 1 C2.67 1.99 2.34 2.98 2 4 C6.62 4 11.24 4 16 4 C15.67 2.68 15.34 1.36 15 0 C16.98 0 18.96 0 21 0 C20.67 1.65 20.34 3.3 20 5 C13.73 5 7.46 5 1 5 C0.67 3.35 0.34 1.7 0 0 Z " fill="#695532" transform="translate(247,483)"/>
<path d="M0 0 C1.485 0.33 1.485 0.33 9 2 C9 2.99 9 3.98 9 5 C6.36 5 3.72 5 1 5 C0.67 3.35 0.34 1.7 0 0 Z " fill="#AC8B4D" transform="translate(393,478)"/>
<path d="M0 0 C2.31 0 4.62 0 7 0 C7 1.32 7 2.64 7 4 C4.69 4 2.38 4 0 4 C0 2.68 0 1.36 0 0 Z " fill="#B08E4F" transform="translate(247,473)"/>
<path d="M0 0 C2.31 0 4.62 0 7 0 C7 1.32 7 2.64 7 4 C4.69 4 2.38 4 0 4 C0 2.68 0 1.36 0 0 Z " fill="#B59352" transform="translate(261,473)"/>
<path d="M0 0 C0.981 3.053 0.981 4.947 0 8 C-1.98 8 -3.96 8 -6 8 C-6 7.01 -6 6.02 -6 5 C-5.381 4.918 -4.762 4.835 -4.125 4.75 C-2 4 -2 4 -0.75 1.938 C-0.502 1.298 -0.255 0.659 0 0 Z " fill="#A37F44" transform="translate(381,475)"/>
<path d="M0 0 C1.98 0 3.96 0 6 0 C6 1.32 6 2.64 6 4 C4.35 4 2.7 4 1 4 C0.67 2.68 0.34 1.36 0 0 Z " fill="#A98547" transform="translate(262,483)"/>
<path d="M0 0 C1.65 0 3.3 0 5 0 C5 1.32 5 2.64 5 4 C3.35 4 1.7 4 0 4 C0 2.68 0 1.36 0 0 Z " fill="#A78144" transform="translate(247,493)"/>
<path d="M0 0 C1.65 0 3.3 0 5 0 C5.33 0.99 5.66 1.98 6 3 C3.69 3 1.38 3 -1 3 C-0.67 2.01 -0.34 1.02 0 0 Z " fill="#1E1D18" transform="translate(384,477)"/>
<path d="M0 0 C1.98 0 3.96 0 6 0 C6 0.99 6 1.98 6 3 C4.02 3 2.04 3 0 3 C0 2.01 0 1.02 0 0 Z " fill="#E9DB8D" transform="translate(385,480)"/>
<path d="M0 0 C0 0.66 0 1.32 0 2 C-2.31 2 -4.62 2 -7 2 C-7 1.34 -7 0.68 -7 0 C-4.333 -1.333 -2.833 -0.671 0 0 Z " fill="#191713" transform="translate(221,477)"/>
</svg>
